<svg xmlns="http://www.w3.org/2000/svg" version="1.0" width="100.000000pt" height="100.000000pt" viewBox="0 0 100.000000 100.000000" preserveAspectRatio="xMidYMid meet">

<g transform="translate(0.000000,100.000000) scale(0.100000,-0.100000)" fill="#f5f5f5" stroke="none">
<path d="M464 918 c-47 -22 -57 -95 -19 -133 39 -40 85 -32 104 18 16 42 13 71 -10 101 -22 28 -40 31 -75 14z m66 -27 c23 -44 5 -111 -30 -111 -39 0 -68 88 -38 118 18 18 56 14 68 -7z" fill="#f5f5f5"/>
<path d="M409 729 c-28 -10 -67 -73 -122 -197 -30 -66 -30 -105 -2 -116 26 -10 40 3 72 67 l32 62 1 -90 c2 -156 17 -324 29 -339 8 -10 32 -14 77 -14 52 0 66 4 74 18 6 10 10 67 10 127 0 59 3 145 7 190 l6 82 29 -45 c22 -35 34 -45 51 -42 34 5 32 40 -8 136 -65 153 -64 151 -104 162 -44 12 -117 12 -152 -1z m169 -26 c23 -20 113 -233 104 -247 -9 -15 -51 46 -68 99 -18 54 -33 78 -35 55 -1 -8 -6 -120 -13 -249 -7 -155 -15 -236 -22 -238 -18 -6 -25 32 -31 175 -3 72 -10 132 -14 132 -5 0 -9 -67 -9 -149 0 -114 -3 -151 -14 -160 -22 -18 -45 -2 -52 37 -10 51 -11 401 -1 435 15 56 -13 25 -64 -68 -81 -152 -106 -99 -28 59 64 128 73 136 157 136 52 0 75 -4 90 -17z" fill="#f5f5f5"/>
<path d="M307 196 c-77 -28 -101 -78 -52 -110 51 -34 142 -48 275 -44 105 3 133 7 172 27 26 12 50 31 53 42 12 37 -45 81 -120 94 -51 9 -36 -7 22 -23 59 -17 91 -46 77 -69 -44 -73 -414 -75 -479 -3 -15 17 -15 20 4 39 11 11 39 25 63 32 24 7 47 16 53 21 14 12 -25 9 -68 -6z" fill="#f5f5f5"/>
</g>
</svg>